<mxfile host="app.diagrams.net" modified="2024-06-18T18:37:31.059Z" agent="Mozilla/5.0 (Macintosh; Intel Mac OS X 10_15_7) AppleWebKit/537.36 (KHTML, like Gecko) Chrome/126.0.0.0 Safari/537.36" version="24.5.5" etag="jtisHRtS_erfnkPLi3oI" type="github">
  <diagram name="Page-1" id="QqMFO9WhTq2CYe5poLSt">
    <mxGraphModel>
      <root>
        <mxCell id="0" />
        <mxCell id="1" parent="0" />
      </root>
    </mxGraphModel>
  </diagram>
</mxfile>
